Coordinates
version=1
nRows=17
nColumns=24
inDegrees=yes

Units are S.I. units (second, meters, Newtons, ...)
Angles are in degrees.

endheader
time	pelvis_tilt	pelvis_list	pelvis_rotation	pelvis_tx	pelvis_ty	pelvis_tz	hip_flexion_r	hip_adduction_r	hip_rotation_r	knee_angle_r	ankle_angle_r	subtalar_angle_r	mtp_angle_r	hip_flexion_l	hip_adduction_l	hip_rotation_l	knee_angle_l	ankle_angle_l	subtalar_angle_l	mtp_angle_l	lumbar_extension	lumbar_bending	lumbar_rotation
      2.96000000	     -9.82201749	      4.81523314	    354.31014993	     -0.56274513	      1.36812760	     -1.03989860	      3.93444034	     -1.76525605	      3.14224185	    -15.96422982	     12.02212278	      0.57254426	      9.86876567	     26.36937266	      4.46996919	     -7.42601164	      4.19861774	     -8.33664118	      3.34559942	     30.82493643	     -4.63275696	     -0.82876289	     16.47492062
      2.96500000	     -9.78104267	      4.91932497	    354.28984362	     -0.55757987	      1.36764280	     -1.04025470	      3.66175847	     -1.93584484	      3.12903006	    -16.12598072	     12.15584804	      0.68035870	      9.94935107	     26.46197258	      4.61444028	     -7.17153835	      3.46455757	     -8.48693323	      2.38541834	     30.61835678	     -4.64975580	     -0.99391867	     16.43249322
      2.97000000	     -9.77081978	      5.00959357	    354.29344103	     -0.55240098	      1.36714691	     -1.04061995	      3.42510542	     -2.08138942	      3.13750685	    -16.30173751	     12.23193331	      0.69586321	     10.00032443	     26.58000035	      4.75222379	     -6.84601692	      2.73637576	     -8.69093679	      1.47170469	     30.49355138	     -4.63710615	     -1.14705120	     16.35777578
      2.97500000	     -9.75007181	      5.11050302	    354.27461143	     -0.54719844	      1.36669851	     -1.04095861	      3.19230657	     -2.23563362	      3.16712173	    -16.50075984	     12.28952096	      0.69229925	     10.05721729	     26.66133463	      4.90065239	     -6.57356483	      2.05926017	     -8.98924241	      0.59126815	     30.37345787	     -4.63394643	     -1.30930733	     16.29491860
      2.98000000	     -9.73920843	      5.20349524	    354.28417231	     -0.54197354	      1.36626403	     -1.04133669	      2.97710111	     -2.38186679	      3.17002897	    -16.72151860	     12.31654690	      0.68948568	     10.13235028	     26.73458785	      5.05756806	     -6.23454781	      1.42249415	     -9.34753611	     -0.27505248	     30.31181891	     -4.61775199	     -1.46588617	     16.20873597
      2.98500000	     -9.72912181	      5.30070131	    354.29625450	     -0.53673342	      1.36587656	     -1.04172929	      2.78025296	     -2.53317481	      3.16652439	    -16.97461403	     12.31022196	      0.68592564	     10.23657352	     26.78492188	      5.22578514	     -5.89691294	      0.84069430	     -9.76934893	     -1.09781326	     30.31662977	     -4.60208045	     -1.62395863	     16.11798181
      2.99000000	     -9.73682874	      5.39231358	    354.32104275	     -0.53148938	      1.36550764	     -1.04214482	      2.62446005	     -2.67608955	      3.15553578	    -17.27047595	     12.26328422	      0.66819322	     10.37948264	     26.83534245	      5.39583546	     -5.54000900	      0.30517191	    -10.23795325	     -1.88360179	     30.37941502	     -4.56692282	     -1.77565323	     16.01534102
      2.99500000	     -9.72724265	      5.48870250	    354.34826297	     -0.52624109	      1.36521169	     -1.04257374	      2.47370178	     -2.82726283	      3.13596904	    -17.60737956	     12.17275802	      0.65127512	     10.57539636	     26.84318036	      5.57796108	     -5.19045516	     -0.17785009	    -10.73962206	     -2.61530850	     30.50118569	     -4.55507322	     -1.93204575	     15.90624681
      3.00000000	     -9.73611718	      5.58989786	    354.38232183	     -0.52098028	      1.36495429	     -1.04301416	      2.37260593	     -2.98269998	      3.10967105	    -17.99790543	     12.03156806	      0.62871143	     10.83460918	     26.85227342	      5.76695033	     -4.84333807	     -0.62100032	    -11.26349288	     -3.29473915	     30.67074286	     -4.52091471	     -2.09298509	     15.79190852
      3.00500000	     -9.76479151	      5.68501998	    354.42553063	     -0.51572499	      1.36473638	     -1.04348450	      2.32681817	     -3.13140217	      3.07501789	    -18.44876592	     11.83118271	      0.59711357	     11.17035422	     26.87162980	      5.95249809	     -4.49222337	     -1.04427846	    -11.78851654	     -3.92840118	     30.87117942	     -4.46685967	     -2.24376627	     15.67668321
      3.01000000	     -9.78294587	      5.78284729	    354.46855024	     -0.51047200	      1.36458955	     -1.04397137	      2.30835974	     -3.28745429	      3.02990485	    -18.96569744	     11.57051828	      0.57559748	     11.57484025	     26.86618684	      6.14340667	     -4.15728337	     -1.44684518	    -12.29600806	     -4.52389002	     31.05632480	     -4.43008051	     -2.39396276	     15.54754376
      3.01500000	     -9.76843856	      5.88069279	    354.52034836	     -0.50522393	      1.36453924	     -1.04448903	      2.28851927	     -3.45171669	      2.96770002	    -19.53951719	     11.25153060	      0.55617804	     12.07623316	     26.81516387	      6.34313234	     -3.82028538	     -1.83739010	    -12.78066503	     -5.08274244	     31.23845655	     -4.43160081	     -2.54622225	     15.43451300
      3.02000000	     -9.77959133	      5.97299957	    354.57105915	     -0.49998370	      1.36453836	     -1.04501341	      2.34765594	     -3.60937641	      2.90114427	    -20.20200337	     10.86177134	      0.53927417	     12.66581463	     26.79203811	      6.53188232	     -3.49608390	     -2.24109864	    -13.21118209	     -5.62189184	     31.35720060	     -4.40709727	     -2.69093160	     15.31148845
      3.02500000	     -9.79547211	      6.04997720	    354.64730342	     -0.49474333	      1.36459526	     -1.04559013	      2.44695802	     -3.75523412	      2.80976783	    -20.92340266	     10.35650971	      0.46324366	     13.45299993	     26.78059654	      6.71454095	     -3.15261128	     -2.67352723	    -13.57034417	     -6.08537241	     31.46972707	     -4.37652790	     -2.82287670	     15.21787198
      3.03000000	     -9.77404753	      6.14956396	    354.69144753	     -0.48952352	      1.36475093	     -1.04616904	      2.57103588	     -3.93844810	      2.72130946	    -21.75097658	      9.88636582	      0.53848957	     14.11072902	     26.72667009	      6.91405340	     -2.84848509	     -3.11112438	    -13.88670986	     -6.62925348	     31.36424416	     -4.39721657	     -2.95740142	     15.08506998
      3.03500000	     -9.77652941	      6.22401048	    354.76498097	     -0.48429497	      1.36494473	     -1.04679868	      2.75771684	     -4.09659765	      2.61249032	    -22.63799398	      9.25048993	      0.51574083	     15.02988417	     26.71232651	      7.09707012	     -2.50279766	     -3.59734054	    -14.08221008	     -7.12148859	     31.23395130	     -4.38503701	     -3.07211102	     14.97787328
      3.04000000	     -9.73106161	      6.32112025	    354.82683965	     -0.47909768	      1.36524166	     -1.04742619	      2.95644454	     -4.29298637	      2.48147267	    -23.62768024	      8.64029726	      0.58501293	     15.91111584	     26.64860872	      7.30432520	     -2.19652220	     -4.09024009	    -14.28428638	     -7.60570541	     30.96845304	     -4.43569927	     -3.21101426	     14.86056897
